Simulation
nRows=44
nColumns=15
endheader
time  TH_x TH_y TH_z SC_y  SC_z  SC_x  AC_y  AC_z  AC_x  GH_y  GH_z  GH_yy  EL_x  PS_y
0.0  0.000000  0.000000  0.000000  -21.481837363305974  5.049547332879065  0.3347068766571287  51.006040172801676  6.473049422619485  -0.2658416427338864  162.57402003753228  2.113701348190042  -118.8029124854138  20.99254038123202  120.000000
0.05362  0.000000  0.000000  0.000000  -20.38616981763301  4.6376714619763435  -1.0677299422966275  51.04360153729837  6.417100471432965  0.2849659657745757  -9.673591316296097  1.8113587586331954  51.2871048432409  20.295954151758366  120.000000
0.10724  0.000000  0.000000  0.000000  -19.370164028050862  4.193851210586074  -2.4883998943277197  51.037145826071885  6.268628008755327  0.8517125596094445  -13.180454172966845  5.640947280999109  52.51473846842742  19.60015049841689  120.000000
0.16086  0.000000  0.000000  0.000000  -18.46194551866822  3.7613918086385567  -3.9538445040369483  50.98200876740786  6.0949814948718455  1.4485926486637084  -14.27204071630118  9.416080589267839  51.04309774680079  18.869853202186032  120.000000
0.21448  0.000000  0.000000  0.000000  -17.67598416727668  3.3488253897500044  -5.452908017111934  50.91166445619249  5.945847629549942  2.0947559561068902  -15.188971201870636  13.165100992879848  48.98525972844066  18.096949660586716  120.000000
0.2681  0.000000  0.000000  0.000000  -17.024544299864925  2.9491869111270796  -6.943144569105074  50.877672637041606  5.870294772144928  2.7950769570325478  -16.195672215322343  16.925330834400118  46.55545188124866  17.287995289621996  120.000000
0.32172  0.000000  0.000000  0.000000  -16.538996389835283  2.570717405151988  -8.383430496176683  50.91210750621513  5.92630431853089  3.548761553629113  -17.321108635390285  20.71975446511836  43.8245493368754  16.459779365205332  120.000000
0.37534  0.000000  0.000000  0.000000  -16.259947772815057  2.2416873930163006  -9.743271443953553  51.01028402688951  6.168506824363811  4.3387518247370975  -18.557026918248777  24.542817111438954  40.9047272462654  15.630527651106839  120.000000
0.42896  0.000000  0.000000  0.000000  -16.23689977055778  2.016171337251358  -10.997313482076072  51.12857834152208  6.632463133613738  5.130876512669264  -19.877716666222906  28.357473732356127  37.93636596690758  14.816412568540603  120.000000
0.48258  0.000000  0.000000  0.000000  -16.503323814198303  1.9486391948833857  -12.122091475101387  51.206571829201  7.337789358539286  5.892920566131807  -21.23931814702572  32.104316139524464  35.06669880290343  14.03019640658005  120.000000
0.5362  0.000000  0.000000  0.000000  -17.079105919410015  2.0788201748829365  -13.091166107628908  51.19607142165165  8.283059110704261  6.608539781478869  -22.553611665380956  35.71628896246929  32.39785912842223  13.284259204449441  120.000000
0.58982  0.000000  0.000000  0.000000  -17.968710569988104  2.4217089945211403  -13.864911050364531  51.08370067511581  9.4371609862063  7.270661961660464  -23.71340267597793  39.1344893476859  29.991311022013313  12.59093916092061  120.000000
0.64344  0.000000  0.000000  0.000000  -19.163982340731028  2.9646580697444374  -14.39518308946849  50.88945980760077  10.742579204629253  7.883501334105408  -24.615018450791954  42.31803482922731  27.866457044272614  11.960029471381118  120.000000
0.69706  0.000000  0.000000  0.000000  -20.64434680461717  3.6731926953161844  -14.633731532769417  50.65965741410268  12.124143166054788  8.452171581691465  -25.181900336688557  45.24395025953258  26.008127472933822  11.393892008604263  120.000000
0.75068  0.000000  0.000000  0.000000  -22.380638076231687  4.5015481414586755  -14.54082480816572  50.45008373759692  13.49955510478398  8.975642039059323  -25.37135048226638  47.903516770855184  24.36471256184126  10.881921664391086  120.000000
0.8043  0.000000  0.000000  0.000000  -24.32720594109951  5.401292164534572  -14.091865087771291  50.313355409543156  14.79879559714224  9.447530073379061  -25.175097342658542  50.301925873052  22.856399154729704  10.399952147698134  120.000000
0.85792  0.000000  0.000000  0.000000  -26.41894751529272  6.328269777613408  -13.282082338044301  50.286546004204325  15.970042150919221  9.858417457841869  -24.616085657321342  52.45707569723977  21.39154457422783  9.918109655803283  120.000000
0.91154  0.000000  0.000000  0.000000  -28.572084965270548  7.244567332005423  -12.124759150771599  50.38056567154647  16.973554561841535  10.19518288780405  -23.75087380790423  54.39436007749816  19.895399709843616  9.41290666669882  120.000000
0.96516  0.000000  0.000000  0.000000  -30.690321739450926  8.123911003684722  -10.659562756956808  50.57462710727182  17.78279279255933  10.446758395742092  -22.664173515596758  56.140022046681594  18.331250516951542  8.880126801991139  120.000000
1.01878  0.000000  0.000000  0.000000  -32.67593324054732  8.950383747564718  -8.955590664654645  50.81797447008666  18.386310690237707  10.612776538619839  -21.460476426580666  57.71844355252307  16.71213052202667  8.33851883181947  120.000000
1.0724  0.000000  0.000000  0.000000  -34.450801731803665  9.719332382894445  -7.104537939904441  51.047340529656715  18.786110963224484  10.701096865989152  -20.248087388431824  59.14796457438773  15.092568368075518  7.822173315730853  120.000000
1.12602  0.000000  0.000000  0.000000  -35.96867644588266  10.43111841984298  -5.207455028781969  51.20872665828965  18.995466851321034  10.725834736740769  -19.121413002764093  60.43989936216977  13.551204818297514  7.368425648965058  120.000000
1.17964  0.000000  0.000000  0.000000  -37.22064197124314  11.084030191635353  -3.3565213925403783  51.27880370758845  19.033779573654897  10.70040669140806  -18.146211054056653  61.59453364989123  12.169171523200896  7.008672046395647  120.000000
1.23326  0.000000  0.000000  0.000000  -38.22871114147922  11.672084340603412  -1.626585196066841  51.270400790145366  18.919803855433198  10.628845523047316  -17.35763697525425  62.6033980981348  11.01719690869885  6.764405187964984  120.000000
1.28688  0.000000  0.000000  0.000000  -39.03450287628576  12.188426406613297  -0.07012808775935256  51.21906134634043  18.67406991754665  10.508206760823192  -16.764689977703135  63.454866384531016  10.143362667483004  6.646205373935361  120.000000
1.3405  0.000000  0.000000  0.000000  -39.68023590501625  12.627638360667548  1.2813794456306673  51.16330987337251  18.31862035885859  10.334676325466537  -16.356071262788436  64.14434640834645  9.566521434629962  6.652914068190514  120.000000
1.39412  0.000000  0.000000  0.000000  -40.194870691273294  12.98408355905449  2.416366464990645  51.12845513253124  17.8828216177426  10.111042995349539  -16.110931281878443  64.67551554882066  9.273185784554984  6.765139995173181  120.000000
1.44774  0.000000  0.000000  0.000000  -40.59208924073503  13.253637276758417  3.340773310320067  51.12301194165652  17.406998243495895  9.845056211216612  -16.007749244686046  65.06398778975668  9.220145206910553  6.940134339438519  120.000000
1.50136  0.000000  0.000000  0.000000  -40.874804818134514  13.430935089713739  4.0762873216166575  51.14402149704217  16.937157075457712  9.547740233979518  -16.026503881193083  65.33875501935513  9.342968085260125  7.118910620248606  120.000000
1.55498  0.000000  0.000000  0.000000  -41.037630770262844  13.509107425202838  4.651161865152852  51.18501534415974  16.515101632047166  9.228908344415629  -16.14874002016358  65.53516178953633  9.571279338955124  7.2428607595254455  120.000000
1.6086  0.000000  0.000000  0.000000  -41.07055509430727  13.482007977870984  5.086934539626112  51.243439028010144  16.165716489193475  8.891752393523008  -16.35650520327433  65.6865823823401  9.84320770296812  7.274156191352974  120.000000
1.66222  0.000000  0.000000  0.000000  -40.95816777531499  13.345070905116668  5.390047927834249  51.32185037118672  15.89066543381766  8.534026129534103  -16.63199363724997  65.81272632119594  10.114222930444525  7.208836575809337  120.000000
1.71584  0.000000  0.000000  0.000000  -40.67920760400274  13.096904728403645  5.549133835362195  51.42834876232031  15.669309840028928  8.149823740919103  -16.959207044498008  65.90936352924139  10.355945916785469  7.07564583952373  120.000000
1.76946  0.000000  0.000000  0.000000  -40.20764957414738  12.739119600567689  5.538694029065511  51.57514801673694  15.46506410776333  7.734308185000329  -17.327326419335247  65.9402892674429  10.54793043649964  6.923403165927114  120.000000
1.82308  0.000000  0.000000  0.000000  -39.51606635864101  12.275652080033531  5.327900957022554  51.77500380535892  15.23464786661022  7.290298360190991  -17.733163778622345  65.83326519586299  10.669096652762626  6.81040808905294  120.000000
1.8767  0.000000  0.000000  0.000000  -38.58329240449717  11.713279941757444  4.886110216449554  52.039495102108376  14.935268345296805  6.831006672755563  -18.18146308536488  65.48284629446577  10.696108673517527  6.798161648019116  120.000000
1.93032  0.000000  0.000000  0.000000  -37.40122100440348  11.059588026633325  4.188306216172389  52.37094606373506  14.529686378756832  6.384759297629186  -18.679838566579104  64.76297806282147  10.611948605247932  6.9462369151367005  120.000000
1.98394  0.000000  0.000000  0.000000  -35.98199732856982  10.324717722710608  3.2196106110475426  52.7563102606734  13.994278312499869  5.9928331721256685  -19.22795543470533  63.55277086890095  10.424830604308548  7.30164312254512  120.000000
2.03756  0.000000  0.000000  0.000000  -34.35370319108439  9.524242579466701  1.9741902628200059  53.16093380626331  13.328597130945063  5.703767474652147  -19.80851904427827  61.766046703781726  10.192091293931185  7.875885616122031  120.000000
2.09118  0.000000  0.000000  0.000000  -32.55254256470788  8.673706824010718  0.4588681185037255  53.5330691788577  12.558029706813132  5.5578949956439185  -20.38522293981256  59.36628740843843  10.040135067957424  8.620709660456784  120.000000
2.1448  0.000000  0.000000  0.000000  -30.613711316414484  7.789242583312354  -1.2996030066806672  53.81044457339196  11.734375026326443  5.580275312870544  -20.906419914107648  56.37263194775941  10.16109698571019  9.425033959779215  120.000000
2.19842  0.000000  0.000000  0.000000  -28.57466454612891  6.894694375722958  -3.246560330523178  53.939193783134776  10.934094888745998  5.7735927061459416  -21.30969218436181  52.8515613775425  10.778987346018823  10.147942768597531  120.000000
2.25204  0.000000  0.000000  0.000000  -26.48725044349863  6.024010789459788  -5.2984022075663475  53.887342439749084  10.2416365633576  6.114482833957351  -21.538400748953038  48.89746553553898  12.105508669306497  10.677607315418088  120.000000
2.30566  0.000000  0.000000  0.000000  -24.430120453252588  5.220988784901025  -7.357394039292028  53.650802405717016  9.732163514655241  6.555142812815189  -21.564056628404543  44.61364667272947  14.298287584167786  10.99088580502846  120.000000
